<?xml version="1.0" encoding="utf-8"?>
<!-- Generator: Adobe Illustrator 27.8.1, SVG Export Plug-In . SVG Version: 6.00 Build 0)  -->
<svg version="1.1" id="Group_38" xmlns="http://www.w3.org/2000/svg" xmlns:xlink="http://www.w3.org/1999/xlink" x="0px" y="0px"
	 viewBox="0 0 349.5 291.1" style="enable-background:new 0 0 349.5 291.1;" xml:space="preserve">
<style type="text/css">
	.st0{fill:#009CDE;}
</style>
<g>
	<path class="st0" d="M216.2,66.3c-0.1-0.2-0.2-0.3-0.4-0.5c-9.8-11-23.7-26.6-33.7-37.7c-3.1-3.3-6.2-6.6-9.1-10
		c-0.7-0.8-1.3-1.6-2-2.4c-0.6-0.6-0.9-1-0.9-1h0.1c-3.4-4-6.1-8.5-8-13.3l-0.5-1.1c0-0.1-0.1-0.1-0.2-0.2C161.4,0,161.2,0,161.1,0
		H161c-0.2,0-0.3,0.1-0.4,0.1c-0.1,0.1-0.1,0.1-0.2,0.2l-0.5,1.1c-2,4.8-4.7,9.3-8,13.3h0.1c0,0-0.3,0.4-0.9,1
		c-0.7,0.8-1.3,1.6-2,2.4c-3,3.4-6,6.7-9.1,10c-9.9,11.1-23.9,26.7-33.7,37.7c-0.1,0.2-0.2,0.3-0.4,0.5c-37,49.3,3.2,89.5,3.2,89.5
		H109c11.9,13.8,28.8,22.3,46.9,23.6c1.6,0.2,3.3,0.3,5.1,0.3h0.1c1.7,0,3.4-0.1,5.1-0.3c18.2-1.3,35-9.8,46.9-23.6H213
		C213,155.8,253.2,115.6,216.2,66.3z M130.1,101l-0.9,1.4l-0.1,0.1c-6.8,8.2-10.8,17-12.1,25.7c-0.2,1.1-1.2,1.8-2.2,1.6
		c-0.7-0.1-1.2-0.6-1.5-1.2c-1.8-4.2-3-8.6-3.6-13.1c-2.2-15.9,2.6-29.8,12.8-41.7c4.1-4.7,8.2-9.4,12.3-14.1
		c0.7-0.8,1.9-0.9,2.7-0.2l0,0c0.1,0.1,0.1,0.1,0.2,0.2c3.3,3.8,7.6,8.7,12.4,14.3c0.6,0.7,0.6,1.8,0,2.6
		c-6.6,7.9-13.6,16.3-19.9,24.3L130.1,101z M186.9,142.2L186.9,142.2c-3.8,10-11.3,16-21.9,17.7c-15.1,2.3-29.2-8-31.5-23.1
		c0-0.2,0-0.3-0.1-0.5c-1.2-8.5,1.4-16,6.9-22.4c6.4-7.5,20.5-24.9,20.7-25.2l0,0c0.3,0.3,15.3,19,20.9,25.6
		C189.1,122.6,190.7,132.1,186.9,142.2z M209.3,126.5L209.3,126.5c-0.1,0.3-0.3,0.7-0.4,1c-0.4,1-1.5,1.5-2.5,1.1
		c-0.6-0.3-1.1-0.8-1.2-1.5c-1.4-8.4-5.4-16.8-11.9-24.7l-0.1-0.1l-0.6-0.9l-0.4-0.5c-5.2-6.6-32.7-38.8-44.7-52.8
		c-0.6-0.7-0.6-1.8,0-2.6c4-4.4,8-8.8,11.9-13.3c0.7-0.8,1.9-0.8,2.7-0.1l0.1,0.1c1.8,1.9,3.5,3.8,5.2,5.8
		c10.9,12.2,21.9,24.2,32.5,36.5C213.2,89.9,216.3,107.7,209.3,126.5z"/>
	<g>
		<path id="Path_13736" class="st0" d="M318.9,189.8h12.5v2.5h-5v12.4h-2.5v-12.4h-5V189.8z"/>
		<path id="Path_13737" class="st0" d="M347,204.7l-1.1-10.8l-0.7,3.6l-2.6,7.2h-3.2l-2.6-7.2l-0.7-3.6l-1.1,10.8h-2.6l1.5-14.9h2.8
			l4.3,11.9l4.3-11.9h2.8l1.5,14.9H347z"/>
		<path id="Path_13738" class="st0" d="M28,193.7H0v73.2h28c20.2,0,36.6-16.4,36.6-36.6C64.6,210.1,48.2,193.8,28,193.7 M45.3,247.6
			c-4.6,4.6-10.8,7.2-17.3,7.1H12.2v-48.9H28c13.6,0.1,24.5,11.2,24.4,24.7C52.3,237,49.8,243.1,45.3,247.6 M301.5,267h12.2v-77.6
			h-12.2V267z M85.2,217.1v-4.5H73V267h12.2v-33.6c0-5.9,4.9-8.6,9.5-8.6h7.6v-12.2h-7.6C91,212.6,87.6,214.3,85.2,217.1
			 M150.3,240.8c0.1,4.2-1.2,8.2-3.7,11.6c-2.5,3.1-6.3,4.8-10.3,4.7c-3.3,0.1-6.5-1.1-9-3.3c-2.6-2.5-3.9-6.2-3.9-11v-29.1h-12.2
			v31.9c-0.1,6.1,2.4,12,6.9,16.2c4.6,4.3,10.7,6.6,16.9,6.5c5.6,0.1,11.1-1.9,15.2-5.8v4.6h12.2v-53.4h-12.2L150.3,240.8z
			 M201.5,212.3c-6.2,0-12.2,2.2-16.9,6.3v-5h-12.2v77.7h12.2v-29.2c4.7,4.1,10.7,6.3,16.9,6.3c15.1,0,27.3-12.5,27.3-27.9
			C228.8,224.8,216.5,212.3,201.5,212.3 M212.1,251.5c-2.8,2.9-6.6,4.6-10.6,4.6c-8.6-0.2-15.4-7.2-15.3-15.8
			c0-4.2,1.6-8.2,4.5-11.3c2.8-3,6.7-4.6,10.8-4.6c8.3,0,15.1,7.1,15.1,15.9C216.6,244.4,215,248.5,212.1,251.5 M278.7,218.6
			c-4.7-4.1-10.7-6.4-16.9-6.3c-15.1,0-27.3,12.5-27.3,27.9s12.2,28,27.3,28c6.2,0.1,12.3-2.2,16.9-6.3v5.1h12.2v-53.5h-12.2V218.6z
			 M261.7,256.1c-8.4,0-15.2-7.1-15.2-15.9c0-8.7,6.8-15.8,15.2-15.8s15.2,7.1,15.2,15.8C276.9,248.9,270.1,256.1,261.7,256.1"/>
	</g>
</g>
</svg>
